<?xml version="1.0" encoding="UTF-8"?>
<svg id="Layer_1" data-name="Layer 1" xmlns="http://www.w3.org/2000/svg" viewBox="0 0 160 160">
  <path d="M126.8,150.33H9.67V33.2c9.19-9.19,14.34-14.34,23.53-23.53h116.13c.56,0,1.01.45,1.01,1.01v116.13c-9.19,9.19-14.34,14.34-23.53,23.53Z" fill="#04897c" fill-rule="evenodd"/>
  <path d="M113.54,150.33H9.67V46.46c0-6.42,5.21-11.63,11.63-11.63.44.42,103.92-.77,103.87.39,0,0,0,103.48,0,103.48,0,6.42-5.21,11.63-11.63,11.63Z" fill="#08a69b" fill-rule="evenodd"/>
  <path d="M91.69,150.33H9.67v-82.02c0-6.42,5.21-11.63,11.63-11.63h81.65c.21,0,.38.17.38.38v81.65c0,6.42-5.21,11.63-11.63,11.63Z" fill="#2dc965" fill-rule="evenodd"/>
  <path d="M66.03,132.29H27.42v-38.61c0-4.31,3.49-7.8,7.8-7.8h38.43c.1,0,.18.08.18.18v38.43c0,4.31-3.49,7.8-7.8,7.8Z" fill="#f2f2f2" fill-rule="evenodd"/>
  <polygon points="9.67 150.33 9.67 148.2 28.17 129.42 30.31 131.52 11.77 150.33 9.67 150.33" fill="#f2f2f2"/>
</svg>